<svg width="1512" height="955" viewBox="0 0 1512 955" fill="none" xmlns="http://www.w3.org/2000/svg">
<g clip-path="url(#clip0_16_2652)">
<g opacity="0.7">
<path d="M174.905 985C136.921 756.815 285.63 512.086 625.02 469.681C898.507 435.454 1530.95 574.266 1608.81 0" stroke="#B2DDFF" stroke-miterlimit="10" stroke-linecap="round"/>
<path d="M146.987 973.781C121.917 739.13 284.11 491.739 636.985 461.695C916.93 437.926 1532.47 586.436 1625.15 28.1428" stroke="#B2DDFF" stroke-miterlimit="10" stroke-linecap="round"/>
<path d="M119.259 962.752C106.914 721.636 282.781 471.203 649.33 453.899C935.732 440.398 1534.37 598.606 1641.67 56.2856" stroke="#B2DDFF" stroke-miterlimit="10" stroke-linecap="round"/>
<path d="M91.3398 951.723C91.9096 704.142 281.072 450.666 661.295 446.102C953.965 442.489 1535.89 610.776 1658 84.4285" stroke="#B2DDFF" stroke-miterlimit="10" stroke-linecap="round"/>
<path d="M63.6113 940.694C77.0958 686.648 279.552 429.749 673.45 438.306C972.387 444.771 1537.59 623.136 1674.34 112.761" stroke="#B2DDFF" stroke-miterlimit="10" stroke-linecap="round"/>
<path d="M35.6924 929.475C62.0915 668.963 277.843 408.642 685.605 430.319C990.809 446.483 1539.3 635.306 1690.86 140.904" stroke="#B2DDFF" stroke-miterlimit="10" stroke-linecap="round"/>
<path d="M7.96387 918.446C47.0878 651.279 276.133 387.345 697.76 422.333C1009.23 448.194 1541.01 647.286 1707.19 169.047" stroke="#B2DDFF" stroke-miterlimit="10" stroke-linecap="round"/>
<path d="M-19.9541 907.417C32.0845 633.785 274.425 366.047 709.915 414.537C1027.65 449.905 1542.53 659.646 1723.72 197.19" stroke="#B2DDFF" stroke-miterlimit="10" stroke-linecap="round"/>
<path d="M-47.6836 896.388C17.0797 616.291 272.714 344.56 722.07 406.74C1046.27 451.617 1544.24 671.816 1740.24 225.523" stroke="#B2DDFF" stroke-miterlimit="10" stroke-linecap="round"/>
<path d="M-75.4121 885.169C2.26591 598.606 271.195 322.882 734.225 398.754C1064.69 452.948 1545.95 683.986 1756.57 253.476" stroke="#B2DDFF" stroke-miterlimit="10" stroke-linecap="round"/>
<path d="M-103.33 874.14C-12.9273 581.112 269.486 301.205 746.38 390.957C1083.11 454.469 1547.66 696.155 1773.1 281.809" stroke="#B2DDFF" stroke-miterlimit="10" stroke-linecap="round"/>
<path d="M-131.059 863.111C-27.7411 563.618 268.157 279.337 758.535 383.161C1101.72 455.8 1549.37 708.515 1789.43 310.142" stroke="#B2DDFF" stroke-miterlimit="10" stroke-linecap="round"/>
<path d="M-158.978 852.082C-42.7454 546.123 266.447 257.469 770.5 375.365C1120.15 457.131 1550.89 720.685 1805.76 338.285" stroke="#B2DDFF" stroke-miterlimit="10" stroke-linecap="round"/>
<path d="M-186.706 840.863C-57.7491 528.439 265.118 235.221 782.655 367.378C1138.57 458.272 1552.6 732.855 1822.1 366.428" stroke="#B2DDFF" stroke-miterlimit="10" stroke-linecap="round"/>
<path d="M-214.624 829.834C-72.7524 510.945 263.599 213.163 794.81 359.392C1157.18 459.223 1554.31 744.835 1838.62 394.38" stroke="#B2DDFF" stroke-miterlimit="10" stroke-linecap="round"/>
<path d="M-242.353 818.805C-87.5663 493.261 262.27 190.915 806.966 351.596C1175.98 460.364 1556.02 757.195 1855.14 422.713" stroke="#B2DDFF" stroke-miterlimit="10" stroke-linecap="round"/>
<path d="M-270.271 807.776C-102.76 475.767 261.13 167.906 819.12 343.799C1194.79 461.125 1557.73 769.365 1871.48 451.046" stroke="#B2DDFF" stroke-miterlimit="10" stroke-linecap="round"/>
<path d="M-298 796.747C-117.574 458.272 259.8 146.419 831.275 336.003C1213.21 462.646 1559.44 781.725 1888 479.189" stroke="#B2DDFF" stroke-miterlimit="10" stroke-linecap="round"/>
</g>
</g>
<defs>
<clipPath id="clip0_16_2652">
<rect width="2186" height="985" fill="white" transform="translate(-298)"/>
</clipPath>
</defs>
</svg>
