<svg width="24" height="24" viewBox="0 0 24 24" fill="none" xmlns="http://www.w3.org/2000/svg">
<path d="M23.9973 15.7292C23.8148 16.1167 23.6055 16.4889 23.3732 16.8459C21.6467 19.5009 18.6056 21.2622 15.1423 21.2622C14.0573 21.2622 13.0138 21.0896 12.0394 20.7704C8.75961 19.696 6.25963 16.9663 5.58301 13.5992C6.31954 16.5519 9.04721 18.743 12.3012 18.743C14.2869 18.743 16.077 17.9266 17.339 16.6193C17.6054 16.3433 17.8479 16.0457 18.0636 15.7292H23.9973Z" fill="url(#paint0_linear_246_689)"/>
<path d="M23.998 15.7302C23.7759 16.3946 23.4966 17.032 23.1638 17.6398C22.8043 18.2962 22.3848 18.9156 21.9119 19.492C21.558 19.9244 21.1745 20.3317 20.7624 20.7111C18.5574 22.7503 15.5781 24 12.3019 24C11.2428 24 10.2149 23.8696 9.23412 23.6242C5.85565 22.0481 3.52344 18.6837 3.52344 14.7879C3.52344 10.8921 5.86579 7.51424 9.25625 5.94263C7.09919 6.97568 5.57541 9.07327 5.40303 11.5332C5.39289 11.6869 5.38644 11.8425 5.38644 11.9989C5.38644 12.5501 5.45373 13.0868 5.58279 13.5993C6.2594 16.9673 8.75939 19.697 12.0392 20.7705C13.0136 21.0896 14.0571 21.2623 15.1421 21.2623C18.6054 21.2623 21.6465 19.5001 23.373 16.8459C23.6053 16.489 23.8146 16.1159 23.9971 15.7293L23.998 15.7302Z" fill="url(#paint1_linear_246_689)"/>
<path d="M18.065 8.26757C16.826 6.45141 14.7077 5.25471 12.3026 5.25471C11.4094 5.25471 10.5549 5.42015 9.77132 5.72134C9.77039 5.72134 9.76855 5.72134 9.76763 5.72224C9.61553 5.78068 9.46619 5.84452 9.32055 5.91285C9.29934 5.92184 9.27814 5.93173 9.25786 5.94162C5.86832 7.51234 3.52505 10.883 3.52505 14.7869C3.52505 18.6908 5.85818 22.0471 9.23574 23.6232C5.99553 22.8122 3.27063 20.7461 1.639 17.9877C0.596419 16.2254 0 14.18 0 11.9988C0 9.14599 1.02138 6.52423 2.72675 4.46441C4.41922 3.07801 6.60301 2.24365 8.98592 2.24365C10.0709 2.24365 11.1153 2.41538 12.0906 2.73366C12.1404 2.74984 12.1902 2.76603 12.239 2.78311C12.24 2.78311 12.2418 2.78401 12.2436 2.78401C12.3072 2.80648 12.3699 2.82896 12.4335 2.85234C12.4566 2.86043 12.4787 2.86942 12.5018 2.87751C12.5248 2.8856 12.5469 2.8946 12.569 2.90269C12.605 2.91707 12.6419 2.93146 12.6778 2.94584C12.7165 2.96113 12.7553 2.97641 12.793 2.9926C12.8318 3.00878 12.8705 3.02496 12.9101 3.04205C12.9101 3.04205 12.911 3.04205 12.912 3.04295C12.9507 3.05913 12.9894 3.07621 13.029 3.09419C13.1065 3.12836 13.1848 3.16432 13.2613 3.20119C13.3028 3.22097 13.3443 3.24075 13.3858 3.26143C13.4309 3.283 13.4743 3.30548 13.5185 3.32796C13.5748 3.35673 13.6301 3.3855 13.6854 3.41517C13.7241 3.43585 13.7628 3.45743 13.8015 3.47811C13.8448 3.50148 13.8873 3.52576 13.9297 3.55003C13.996 3.5878 14.0624 3.62736 14.1278 3.66692C14.1933 3.70648 14.2587 3.74694 14.3233 3.78829C14.4099 3.84314 14.4947 3.89888 14.5786 3.95642C14.621 3.98519 14.6625 4.01397 14.704 4.04274C14.7455 4.07241 14.787 4.10118 14.8284 4.13175C14.8699 4.16232 14.9105 4.19199 14.951 4.22256C15.0322 4.28369 15.1124 4.34663 15.1907 4.40957C15.234 4.44373 15.2774 4.4797 15.3198 4.51476C15.3566 4.54533 15.3944 4.5768 15.4304 4.60827C15.4673 4.63973 15.5041 4.6712 15.5401 4.70357C15.577 4.73594 15.6147 4.7692 15.6516 4.80337C15.6553 4.80607 15.6581 4.80966 15.6618 4.81326C15.6654 4.81686 15.6691 4.81955 15.6728 4.82315C15.7042 4.85192 15.7346 4.87979 15.7641 4.90766C15.7927 4.93464 15.8203 4.96161 15.8489 4.98858C15.8535 4.99308 15.8581 4.99667 15.8627 5.00117C15.8747 5.01376 15.8885 5.02634 15.9014 5.03893C15.9632 5.09917 16.024 5.16121 16.0858 5.22415C16.1208 5.26101 16.1577 5.29967 16.1927 5.33653C16.2425 5.38958 16.2923 5.44352 16.3402 5.49747C16.3882 5.55142 16.4352 5.60536 16.4822 5.66021C16.4831 5.6611 16.484 5.6629 16.4849 5.6629C16.5061 5.68718 16.5264 5.71055 16.5467 5.73483C16.567 5.75821 16.5873 5.78248 16.6066 5.80676C16.6186 5.82204 16.6306 5.83733 16.6435 5.85261C16.6822 5.90116 16.7219 5.95061 16.7606 6.00006C16.7974 6.04771 16.8352 6.09716 16.8721 6.14571C16.8721 6.14571 16.8721 6.14572 16.8721 6.14661C16.9044 6.18977 16.9366 6.23293 16.9689 6.27788C16.9901 6.30755 17.0113 6.33722 17.0325 6.36689C17.0509 6.39387 17.0703 6.41994 17.0887 6.44781C17.1072 6.47478 17.1256 6.50176 17.1441 6.52873C17.156 6.54761 17.1689 6.56559 17.1809 6.58447C17.2086 6.62673 17.2362 6.66899 17.2639 6.71125C17.2971 6.76249 17.3293 6.81464 17.3616 6.86679C17.3662 6.87488 17.3708 6.88297 17.3764 6.89016C17.4252 6.96928 17.4713 7.0493 17.5174 7.12932C17.5432 7.17428 17.5681 7.21923 17.593 7.26599C17.5957 7.27048 17.5985 7.27588 17.6013 7.28037C17.6289 7.33162 17.6566 7.38287 17.6833 7.43411C17.6833 7.43411 17.6842 7.43501 17.6842 7.43591C17.699 7.46468 17.7147 7.49435 17.7294 7.52402C17.746 7.55639 17.7626 7.58876 17.7783 7.62113C17.7902 7.6463 17.8032 7.67238 17.8151 7.69755C17.8428 7.75509 17.8704 7.81353 17.8972 7.87197C17.9064 7.89175 17.9156 7.91153 17.9248 7.93041C17.9387 7.96098 17.9525 7.99245 17.9654 8.02392C17.9737 8.0428 17.982 8.06078 17.9894 8.07966C18.0161 8.1417 18.0419 8.20374 18.0668 8.26578L18.065 8.26757Z" fill="url(#paint2_linear_246_689)"/>
<path d="M24.0003 8.26986H18.0647C18.0647 8.26986 18.0647 8.26896 18.0647 8.26806C18.0398 8.20602 18.014 8.14398 17.9872 8.08194C17.9798 8.06306 17.9716 8.04508 17.9633 8.0262C17.9494 7.99473 17.9356 7.96326 17.9227 7.9327C17.9135 7.91292 17.9043 7.89314 17.895 7.87425C17.8683 7.81581 17.8407 7.75737 17.813 7.69983C17.801 7.67466 17.789 7.64858 17.7761 7.62341C17.7595 7.59104 17.7439 7.55867 17.7273 7.52631C17.7125 7.49664 17.6978 7.46786 17.6821 7.43819C17.6821 7.43819 17.6821 7.4373 17.6812 7.4364C17.6544 7.38515 17.6268 7.333 17.5991 7.28265C17.5964 7.27816 17.5945 7.27276 17.5908 7.26827C17.566 7.22241 17.5401 7.17656 17.5153 7.1316C17.4692 7.05158 17.4231 6.97157 17.3742 6.89245C17.3696 6.88435 17.3641 6.87626 17.3595 6.86907C17.3272 6.81692 17.2949 6.76567 17.2617 6.71352C17.2341 6.67127 17.2074 6.62901 17.1788 6.58675C17.1668 6.56787 17.1548 6.54989 17.1419 6.53101C17.1235 6.50404 17.105 6.47706 17.0866 6.45009C17.0682 6.42312 17.0497 6.39615 17.0304 6.36917C17.0101 6.3395 16.9889 6.30983 16.9668 6.28016C16.9354 6.23611 16.9032 6.19205 16.87 6.14889C16.87 6.14889 16.87 6.1489 16.87 6.148C16.8331 6.09855 16.7962 6.05 16.7584 6.00234C16.7197 5.95289 16.681 5.90344 16.6414 5.85489C16.6285 5.83961 16.6156 5.82432 16.6045 5.80904C16.5842 5.78476 16.5649 5.76049 16.5446 5.73711C16.5243 5.71284 16.504 5.68856 16.4828 5.66518C16.4828 5.66518 16.4819 5.66339 16.48 5.66249C16.434 5.60764 16.3869 5.5537 16.3381 5.49975C16.2892 5.4458 16.2394 5.39276 16.1906 5.33881C16.1556 5.30105 16.1187 5.26329 16.0837 5.22643C16.0237 5.16439 15.962 5.10235 15.8993 5.04121C15.8864 5.02863 15.8735 5.01604 15.8606 5.00345C15.856 4.99896 15.8514 4.99536 15.8468 4.99086C15.8191 4.96389 15.7905 4.93602 15.7619 4.90995C15.7324 4.88117 15.702 4.8533 15.6707 4.82543C15.667 4.82183 15.6633 4.81914 15.6596 4.81554C15.6559 4.81284 15.6532 4.80925 15.6495 4.80565C15.6126 4.77238 15.5757 4.73912 15.5379 4.70585C15.502 4.67348 15.4651 4.64202 15.4282 4.61055C15.3914 4.57818 15.3545 4.54761 15.3176 4.51704C15.2752 4.48198 15.2328 4.44691 15.1886 4.41185C15.1093 4.34801 15.03 4.28597 14.9489 4.22484C14.9083 4.19427 14.8678 4.1637 14.8263 4.13403C14.7848 4.10346 14.7433 4.07379 14.7018 4.04502C14.6604 4.01535 14.6189 3.98658 14.5765 3.95871C14.4926 3.90116 14.4078 3.84452 14.3211 3.79057C14.2566 3.74832 14.1921 3.70876 14.1257 3.6692C14.0603 3.62874 13.9939 3.59008 13.9275 3.55231C13.8851 3.52804 13.8427 3.50376 13.7994 3.48039C13.7607 3.45881 13.722 3.43813 13.6832 3.41745C13.6279 3.38778 13.5726 3.35901 13.5164 3.33024C13.4721 3.30686 13.4279 3.28439 13.3836 3.26371C13.3422 3.24303 13.3007 3.22325 13.2592 3.20347C13.1818 3.1666 13.1053 3.13064 13.0269 3.09648C12.9882 3.07849 12.9495 3.06231 12.9098 3.04523C12.9098 3.04523 12.9089 3.04523 12.908 3.04433C12.8693 3.02725 12.8305 3.01106 12.7909 2.99488C12.7531 2.97869 12.7144 2.96341 12.6757 2.94813C12.6397 2.93374 12.6029 2.91935 12.5669 2.90497C12.5448 2.89688 12.5217 2.88789 12.4996 2.87979C12.4775 2.8717 12.4544 2.86271 12.4314 2.85462C12.3687 2.83124 12.3051 2.80877 12.2415 2.78629C12.2406 2.78629 12.2387 2.78629 12.2369 2.78539C12.188 2.76831 12.1383 2.75212 12.0885 2.73594C11.1132 2.41766 10.0688 2.24593 8.98378 2.24593C6.60087 2.24593 4.41708 3.08029 2.72461 4.46669C4.97939 1.74244 8.43161 0 12.3014 0C15.5785 0 18.5578 1.25064 20.7619 3.28888C21.173 3.6692 21.5574 4.07559 21.9114 4.50805C22.3935 5.09426 22.8203 5.72542 23.1826 6.39435C23.508 6.99224 23.7809 7.61891 23.9993 8.27165L24.0003 8.26986Z" fill="url(#paint3_linear_246_689)"/>
<defs>
<linearGradient id="paint0_linear_246_689" x1="13.7043" y1="14.7429" x2="27.4049" y2="28.7889" gradientUnits="userSpaceOnUse">
<stop stop-color="#2B3990"/>
<stop offset="0.32" stop-color="#1C75BC"/>
<stop offset="0.57" stop-color="#27AAE1"/>
<stop offset="1" stop-color="#00A79D"/>
</linearGradient>
<linearGradient id="paint1_linear_246_689" x1="4.83058" y1="8.57607" x2="24.4526" y2="28.6941" gradientUnits="userSpaceOnUse">
<stop stop-color="#2B3990"/>
<stop offset="0.32" stop-color="#1C75BC"/>
<stop offset="0.57" stop-color="#27AAE1"/>
<stop offset="1" stop-color="#00A79D"/>
</linearGradient>
<linearGradient id="paint2_linear_246_689" x1="-0.374259" y1="20.2417" x2="15.6911" y2="3.77108" gradientUnits="userSpaceOnUse">
<stop stop-color="#00A79D"/>
<stop offset="0.43" stop-color="#27AAE1"/>
<stop offset="0.68" stop-color="#1C75BC"/>
<stop offset="1" stop-color="#2B3990"/>
</linearGradient>
<linearGradient id="paint3_linear_246_689" x1="3.66579" y1="-4.00726" x2="19.4237" y2="12.15" gradientUnits="userSpaceOnUse">
<stop stop-color="#00A79D"/>
<stop offset="0.43" stop-color="#27AAE1"/>
<stop offset="0.68" stop-color="#1C75BC"/>
<stop offset="1" stop-color="#2B3990"/>
</linearGradient>
</defs>
</svg>
