<svg width="128" height="48" viewBox="0 0 128 48" fill="none" xmlns="http://www.w3.org/2000/svg">
<path d="M128 28.7994V48H119.614V44.6829C116.548 46.7773 112.844 48 108.855 48C103.756 48 99.1208 45.9991 95.6914 42.7381C97.6019 40.4337 99.052 37.7294 99.8896 34.769C101.817 37.6747 105.113 39.5908 108.855 39.5908C114.798 39.5908 119.614 34.7604 119.614 28.8009C119.614 22.8414 114.798 18.011 108.855 18.011C105.602 18.011 102.691 19.4567 100.717 21.7424V11.42C103.187 10.252 105.947 9.60034 108.855 9.60034C119.428 9.60034 128 18.198 128 28.8009V28.7994Z" fill="url(#paint0_linear_246_674)"/>
<path d="M98.0967 0V28.7994C98.0967 33.3348 96.5276 37.5021 93.9042 40.7875C93.3535 41.4794 92.7568 42.131 92.1171 42.738C88.6877 46.0005 84.052 47.9999 78.9531 47.9999C73.8541 47.9999 69.2185 45.999 65.7891 42.738C67.6996 40.4336 69.1496 37.7293 69.9873 34.769C71.915 37.6747 75.211 39.5907 78.9531 39.5907C82.6952 39.5907 85.9912 37.6747 87.9189 34.769C89.052 33.0601 89.7132 31.0074 89.7132 28.7994C89.7132 26.5914 89.052 24.5387 87.9189 22.8298C85.9912 19.9241 82.6952 18.0081 78.9531 18.0081C75.7001 18.0081 72.7885 19.4537 70.8149 21.7394V11.417C73.2847 10.249 76.0443 9.5974 78.9531 9.5974C82.9419 9.5974 86.6467 10.8244 89.7118 12.9174V0H98.0981H98.0967Z" fill="url(#paint1_linear_246_674)"/>
<path d="M68.1924 0V28.7994C68.1924 33.3348 66.6233 37.5021 63.9999 40.7875C63.4492 41.4794 62.8525 42.131 62.2128 42.738C58.7834 46.0005 54.1477 47.9999 49.0488 47.9999C43.9498 47.9999 39.3142 45.999 35.8848 42.738C37.7953 40.4336 39.2453 37.7293 40.083 34.769C42.0107 37.6747 45.3067 39.5907 49.0488 39.5907C52.7909 39.5907 56.0869 37.6747 58.0146 34.769C59.1477 33.0601 59.8089 31.0074 59.8089 28.7994C59.8089 26.5914 59.1477 24.5387 58.0146 22.8298C56.0869 19.9241 52.7909 18.0081 49.0488 18.0081C45.3067 18.0081 42.0107 19.9241 40.083 22.8298C39.2439 19.868 37.7938 17.1651 35.8848 14.8607C39.3142 11.5983 43.9498 9.59884 49.0488 9.59884C53.0376 9.59884 56.7424 10.8258 59.8075 12.9188V0H68.1938H68.1924Z" fill="url(#paint2_linear_246_674)"/>
<path d="M37.3401 34.5891C37.0561 35.2091 36.7305 35.8046 36.369 36.3757C33.6826 40.6234 28.9508 43.4414 23.5622 43.4414C21.874 43.4414 20.2504 43.1652 18.7343 42.6545C13.6311 40.9356 9.74125 36.5684 8.68848 31.1814C9.83448 35.9053 14.0786 39.4108 19.1417 39.4108C22.2311 39.4108 25.0166 38.1047 26.9801 36.0132C27.3946 35.5716 27.7718 35.0954 28.1075 34.5891H37.3401Z" fill="url(#paint3_linear_246_674)"/>
<path d="M37.3406 34.5905C36.995 35.6535 36.5604 36.6734 36.0426 37.6457C35.4832 38.6958 34.8306 39.6869 34.0948 40.609C33.544 41.3009 32.9474 41.9525 32.3062 42.5595C28.8754 45.8219 24.2397 47.8214 19.1422 47.8214C17.4942 47.8214 15.895 47.6128 14.3689 47.2201C9.11218 44.6985 5.4834 39.3158 5.4834 33.083C5.4834 26.8501 9.12796 21.4458 14.4033 18.9314C11.047 20.5842 8.67615 23.9401 8.40794 27.8757C8.39216 28.1217 8.38212 28.3706 8.38212 28.6209C8.38212 29.5026 8.48682 30.3614 8.68762 31.1813C9.7404 36.5698 13.6302 40.9369 18.7335 42.6545C20.2495 43.1651 21.8731 43.4413 23.5613 43.4413C28.95 43.4413 33.6817 40.6219 36.3682 36.3756C36.7296 35.8045 37.0552 35.2076 37.3392 34.589L37.3406 34.5905Z" fill="url(#paint4_linear_246_674)"/>
<path d="M28.108 22.6512C26.1803 19.7455 22.8843 17.8309 19.1422 17.8309C17.7523 17.8309 16.4227 18.0956 15.2036 18.5775C15.2021 18.5775 15.1993 18.5775 15.1978 18.5789C14.9612 18.6724 14.7288 18.7746 14.5022 18.8839C14.4692 18.8983 14.4362 18.9141 14.4047 18.9299C9.13076 21.4429 5.48476 26.8357 5.48476 33.0815C5.48476 39.3273 9.11498 44.697 14.3703 47.2187C9.32869 45.9212 5.0889 42.6156 2.55019 38.2024C0.927992 35.383 0 32.1105 0 28.6208C0 24.0566 1.5892 19.8621 4.24266 16.5665C6.87604 14.3484 10.2739 13.0135 13.9816 13.0135C15.6697 13.0135 17.2948 13.2883 18.8123 13.7975C18.8897 13.8234 18.9672 13.8493 19.0432 13.8766C19.0446 13.8766 19.0475 13.8781 19.0504 13.8781C19.1493 13.914 19.2469 13.95 19.3458 13.9874C19.3817 14.0003 19.4161 14.0147 19.452 14.0277C19.4878 14.0406 19.5223 14.055 19.5567 14.0679C19.6126 14.091 19.67 14.114 19.7259 14.137C19.7862 14.1614 19.8464 14.1859 19.9052 14.2118C19.9655 14.2377 20.0257 14.2636 20.0874 14.2909C20.0874 14.2909 20.0888 14.2909 20.0902 14.2923C20.1505 14.3182 20.2107 14.3456 20.2724 14.3743C20.3929 14.429 20.5148 14.4865 20.6338 14.5455C20.6984 14.5772 20.7629 14.6088 20.8275 14.6419C20.8978 14.6764 20.9652 14.7124 21.034 14.7483C21.1215 14.7944 21.2076 14.8404 21.2936 14.8879C21.3539 14.9209 21.4141 14.9555 21.4743 14.9886C21.5418 15.026 21.6077 15.0648 21.6737 15.1036C21.777 15.164 21.8803 15.2273 21.9821 15.2906C22.0839 15.3539 22.1858 15.4187 22.2862 15.4848C22.421 15.5726 22.5529 15.6618 22.6835 15.7538C22.7494 15.7998 22.814 15.8459 22.8785 15.8919C22.9431 15.9394 23.0076 15.9854 23.0722 16.0343C23.1367 16.0832 23.1998 16.1307 23.2629 16.1796C23.3891 16.2774 23.5139 16.3781 23.6358 16.4788C23.7032 16.5335 23.7707 16.591 23.8366 16.6471C23.894 16.696 23.9528 16.7463 24.0088 16.7967C24.0661 16.847 24.1235 16.8974 24.1794 16.9492C24.2368 17.001 24.2956 17.0542 24.353 17.1088C24.3587 17.1132 24.363 17.1189 24.3688 17.1247C24.3745 17.1304 24.3802 17.1347 24.386 17.1405C24.4347 17.1865 24.4821 17.2311 24.528 17.2757C24.5724 17.3189 24.6155 17.362 24.6599 17.4052C24.6671 17.4124 24.6743 17.4181 24.6814 17.4253C24.7001 17.4454 24.7216 17.4656 24.7417 17.4857C24.8378 17.5821 24.9324 17.6813 25.0285 17.782C25.083 17.841 25.1404 17.9029 25.1949 17.9618C25.2724 18.0467 25.3498 18.133 25.4244 18.2193C25.499 18.3056 25.5721 18.3919 25.6453 18.4797C25.6467 18.4811 25.6482 18.484 25.6496 18.484C25.6826 18.5228 25.7141 18.5602 25.7457 18.5991C25.7772 18.6365 25.8088 18.6753 25.8389 18.7142C25.8576 18.7386 25.8762 18.7631 25.8963 18.7875C25.9565 18.8652 26.0182 18.9443 26.0784 19.0234C26.1358 19.0997 26.1946 19.1788 26.252 19.2565C26.252 19.2565 26.252 19.2565 26.252 19.2579C26.3022 19.3269 26.3524 19.396 26.4026 19.4679C26.4356 19.5154 26.4686 19.5629 26.5016 19.6103C26.5303 19.6535 26.5604 19.6952 26.5891 19.7398C26.6177 19.7829 26.6464 19.8261 26.6751 19.8692C26.6938 19.8995 26.7138 19.9282 26.7325 19.9584C26.7755 20.026 26.8185 20.0936 26.8616 20.1613C26.9132 20.2432 26.9634 20.3267 27.0136 20.4101C27.0208 20.423 27.028 20.436 27.0366 20.4475C27.1126 20.5741 27.1843 20.7021 27.256 20.8301C27.2962 20.9021 27.3349 20.974 27.3736 21.0488C27.3779 21.056 27.3822 21.0646 27.3865 21.0718C27.4296 21.1538 27.4726 21.2358 27.5142 21.3178C27.5142 21.3178 27.5156 21.3192 27.5156 21.3206C27.5386 21.3667 27.563 21.4141 27.5859 21.4616C27.6117 21.5134 27.6375 21.5652 27.6619 21.617C27.6806 21.6572 27.7006 21.699 27.7193 21.7392C27.7623 21.8313 27.8053 21.9248 27.8469 22.0183C27.8613 22.0499 27.8756 22.0816 27.89 22.1118C27.9115 22.1607 27.933 22.2111 27.9531 22.2614C27.966 22.2916 27.9789 22.3204 27.9904 22.3506C28.032 22.4498 28.0721 22.5491 28.1109 22.6483L28.108 22.6512Z" fill="url(#paint5_linear_246_674)"/>
<path d="M37.3429 22.6548H28.1075C28.1075 22.6548 28.1075 22.6533 28.1075 22.6519C28.0687 22.5526 28.0286 22.4534 27.987 22.3541C27.9755 22.3239 27.9626 22.2952 27.9497 22.2649C27.9282 22.2146 27.9067 22.1643 27.8866 22.1153C27.8722 22.0837 27.8579 22.0521 27.8435 22.0218C27.8019 21.9283 27.7589 21.8348 27.7159 21.7428C27.6972 21.7025 27.6786 21.6608 27.6585 21.6205C27.6327 21.5687 27.6083 21.5169 27.5825 21.4652C27.5596 21.4177 27.5366 21.3717 27.5122 21.3242C27.5122 21.3242 27.5122 21.3228 27.5108 21.3213C27.4692 21.2393 27.4262 21.1559 27.3831 21.0753C27.3788 21.0681 27.376 21.0595 27.3702 21.0523C27.3315 20.979 27.2913 20.9056 27.2526 20.8337C27.1809 20.7057 27.1092 20.5776 27.0332 20.4511C27.026 20.4381 27.0174 20.4252 27.0102 20.4137C26.96 20.3302 26.9098 20.2482 26.8582 20.1648C26.8151 20.0972 26.7736 20.0296 26.7291 19.962C26.7104 19.9318 26.6918 19.903 26.6717 19.8728C26.643 19.8296 26.6143 19.7865 26.5857 19.7433C26.557 19.7002 26.5283 19.657 26.4982 19.6139C26.4666 19.5664 26.4336 19.5189 26.3992 19.4715C26.3504 19.401 26.3002 19.3305 26.2486 19.2614C26.2486 19.2614 26.2486 19.2614 26.2486 19.26C26.1912 19.1809 26.1339 19.1032 26.0751 19.027C26.0148 18.9479 25.9546 18.8687 25.8929 18.7911C25.8728 18.7666 25.8527 18.7422 25.8355 18.7177C25.804 18.6789 25.7738 18.64 25.7423 18.6026C25.7107 18.5638 25.6792 18.525 25.6462 18.4876C25.6462 18.4876 25.6448 18.4847 25.6419 18.4832C25.5702 18.3955 25.497 18.3092 25.421 18.2229C25.345 18.1366 25.2675 18.0517 25.1915 17.9654C25.137 17.905 25.0796 17.8446 25.0251 17.7856C24.9319 17.6863 24.8358 17.5871 24.7383 17.4893C24.7182 17.4691 24.6981 17.449 24.678 17.4289C24.6709 17.4217 24.6637 17.4159 24.6565 17.4087C24.6135 17.3656 24.569 17.321 24.5246 17.2793C24.4787 17.2332 24.4313 17.1886 24.3826 17.144C24.3768 17.1383 24.3711 17.134 24.3654 17.1282C24.3596 17.1239 24.3553 17.1181 24.3496 17.1124C24.2922 17.0592 24.2348 17.0059 24.176 16.9527C24.1201 16.9009 24.0627 16.8506 24.0054 16.8002C23.948 16.7485 23.8906 16.6996 23.8332 16.6506C23.7673 16.5945 23.7013 16.5384 23.6324 16.4823C23.5091 16.3802 23.3857 16.281 23.2595 16.1831C23.1964 16.1342 23.1333 16.0853 23.0688 16.0379C23.0042 15.989 22.9397 15.9415 22.8751 15.8955C22.8106 15.848 22.746 15.802 22.6801 15.7574C22.5495 15.6653 22.4176 15.5747 22.2828 15.4884C22.1824 15.4208 22.082 15.3575 21.9787 15.2942C21.8769 15.2294 21.7736 15.1676 21.6703 15.1072C21.6043 15.0683 21.5384 15.0295 21.4709 14.9921C21.4107 14.9576 21.3505 14.9245 21.2902 14.8914C21.2042 14.8439 21.1181 14.7979 21.0306 14.7519C20.9618 14.7145 20.8929 14.6785 20.8241 14.6454C20.7595 14.6123 20.695 14.5807 20.6304 14.5491C20.51 14.4901 20.3909 14.4325 20.269 14.3779C20.2088 14.3491 20.1485 14.3232 20.0868 14.2959C20.0868 14.2959 20.0854 14.2959 20.084 14.2944C20.0237 14.2671 19.9635 14.2412 19.9018 14.2153C19.843 14.1894 19.7828 14.165 19.7225 14.1405C19.6666 14.1175 19.6092 14.0945 19.5533 14.0715C19.5189 14.0585 19.483 14.0442 19.4486 14.0312C19.4142 14.0183 19.3783 14.0039 19.3424 13.9909C19.2449 13.9535 19.1459 13.9176 19.047 13.8816C19.0455 13.8816 19.0427 13.8816 19.0398 13.8802C18.9638 13.8528 18.8863 13.8269 18.8089 13.8011C17.2914 13.2918 15.6663 13.0171 13.9782 13.0171C10.2705 13.0171 6.87263 14.352 4.23926 16.5701C7.74756 12.2116 13.119 9.42383 19.1402 9.42383C24.2391 9.42383 28.8748 11.4247 32.3042 14.6857C32.9439 15.2942 33.542 15.9444 34.0928 16.6363C34.8429 17.5741 35.507 18.5839 36.0707 19.6541C36.577 20.6107 37.0016 21.6133 37.3415 22.6576L37.3429 22.6548Z" fill="url(#paint6_linear_246_674)"/>
<defs>
<linearGradient id="paint0_linear_246_674" x1="131.291" y1="12.7276" x2="71.2195" y2="72.6251" gradientUnits="userSpaceOnUse">
<stop stop-color="#00A79D"/>
<stop offset="0.43" stop-color="#27AAE1"/>
<stop offset="0.68" stop-color="#1C75BC"/>
<stop offset="1" stop-color="#2B3990"/>
</linearGradient>
<linearGradient id="paint1_linear_246_674" x1="113.536" y1="-5.08063" x2="53.4628" y2="54.817" gradientUnits="userSpaceOnUse">
<stop stop-color="#00A79D"/>
<stop offset="0.43" stop-color="#27AAE1"/>
<stop offset="0.68" stop-color="#1C75BC"/>
<stop offset="1" stop-color="#2B3990"/>
</linearGradient>
<linearGradient id="paint2_linear_246_674" x1="98.1851" y1="-20.475" x2="38.1124" y2="39.4226" gradientUnits="userSpaceOnUse">
<stop stop-color="#00A79D"/>
<stop offset="0.43" stop-color="#27AAE1"/>
<stop offset="0.68" stop-color="#1C75BC"/>
<stop offset="1" stop-color="#2B3990"/>
</linearGradient>
<linearGradient id="paint3_linear_246_674" x1="21.3247" y1="33.0111" x2="43.251" y2="54.8726" gradientUnits="userSpaceOnUse">
<stop stop-color="#2B3990"/>
<stop offset="0.32" stop-color="#1C75BC"/>
<stop offset="0.57" stop-color="#27AAE1"/>
<stop offset="1" stop-color="#00A79D"/>
</linearGradient>
<linearGradient id="paint4_linear_246_674" x1="7.51724" y1="23.1446" x2="38.9201" y2="54.4567" gradientUnits="userSpaceOnUse">
<stop stop-color="#2B3990"/>
<stop offset="0.32" stop-color="#1C75BC"/>
<stop offset="0.57" stop-color="#27AAE1"/>
<stop offset="1" stop-color="#00A79D"/>
</linearGradient>
<linearGradient id="paint5_linear_246_674" x1="-0.582325" y1="41.8086" x2="25.1286" y2="16.1735" gradientUnits="userSpaceOnUse">
<stop stop-color="#00A79D"/>
<stop offset="0.43" stop-color="#27AAE1"/>
<stop offset="0.68" stop-color="#1C75BC"/>
<stop offset="1" stop-color="#2B3990"/>
</linearGradient>
<linearGradient id="paint6_linear_246_674" x1="5.70368" y1="3.01262" x2="30.9226" y2="28.1601" gradientUnits="userSpaceOnUse">
<stop stop-color="#00A79D"/>
<stop offset="0.43" stop-color="#27AAE1"/>
<stop offset="0.68" stop-color="#1C75BC"/>
<stop offset="1" stop-color="#2B3990"/>
</linearGradient>
</defs>
</svg>
