<svg width="25" height="24" viewBox="0 0 25 24" fill="none" xmlns="http://www.w3.org/2000/svg">
<path d="M18.227 2H7.07699C4.64699 2 2.66699 3.98 2.66699 6.41V12.91V13.11C2.66699 15.55 4.64699 17.52 7.07699 17.52H10.917C11.467 17.52 11.917 17.97 11.917 18.52V19.49C11.917 20.04 11.467 20.49 10.917 20.49H8.49699C8.08699 20.49 7.74699 20.83 7.74699 21.24C7.74699 21.65 8.07699 22 8.49699 22H16.847C17.257 22 17.597 21.66 17.597 21.25C17.597 20.84 17.257 20.5 16.847 20.5H14.427C13.877 20.5 13.427 20.05 13.427 19.5V18.53C13.427 17.98 13.877 17.53 14.427 17.53H18.237C20.677 17.53 22.647 15.55 22.647 13.12V12.92V6.42C22.637 3.98 20.657 2 18.227 2Z" fill="#2AA7DF"/>
</svg>
