<svg
              xmlns="http://www.w3.org/2000/svg"
              width="30"
              height="30"
              viewBox="0 0 24 24"
              fill="none"
            >
              <g clip-path="url(#clip0_16_2710)">
                <path
                  d="M11.9763 1.19995C9.00835 1.19995 6.60254 3.60576 6.60254 6.57368V11.6776C6.60254 13.8811 7.95159 15.7922 9.86275 16.6241V14.8928C8.82848 14.1958 8.13147 13.0267 8.13147 11.6776V6.57368C8.13147 4.46017 9.86275 2.72888 11.9763 2.72888C14.1123 2.72888 15.8211 4.46017 15.8211 6.57368V11.6776C15.8211 13.0267 15.1241 14.1958 14.0898 14.8928V16.6241C16.0009 15.7922 17.35 13.9035 17.35 11.6776V6.57368C17.35 3.60576 14.9442 1.19995 11.9763 1.19995Z"
                  fill="#2AA7DF"
                />
                <path
                  d="M11.9764 7.9903C12.4036 7.9903 12.7408 7.65304 12.7408 7.22584V5.15729C12.7408 4.73009 12.4036 4.39282 11.9764 4.39282C11.5492 4.39282 11.2119 4.73009 11.2119 5.15729V7.22584C11.2119 7.63055 11.5492 7.9903 11.9764 7.9903Z"
                  fill="#2AA7DF"
                />
                <path
                  d="M14.0224 18.9327L12.7408 20.2143V13.4915C12.7408 13.0643 12.4036 12.7271 11.9764 12.7271C11.5492 12.7271 11.2119 13.0643 11.2119 13.4915V20.1918L9.9303 18.9102C9.63801 18.6179 9.14335 18.6179 8.85106 18.9102C8.55876 19.2025 8.55876 19.6972 8.85106 19.9895L11.4367 22.5751C11.5941 22.7325 11.774 22.8 11.9764 22.8C12.1787 22.8 12.3586 22.7325 12.516 22.5751L15.1017 19.9895C15.394 19.6972 15.394 19.2025 15.1017 18.9102C14.7869 18.6179 14.3147 18.6179 14.0224 18.9327Z"
                  fill="#2AA7DF"
                />
              </g>
              <defs>
                <clipPath id="clip0_16_2710">
                  <rect width="24" height="24" fill="white" />
                </clipPath>
              </defs>
            </svg>