<svg width="29" height="28" viewBox="0 0 29 28" fill="none" xmlns="http://www.w3.org/2000/svg">
<path d="M21.1182 9.06504C21.0366 9.05337 20.9549 9.05337 20.8732 9.06504C19.0649 9.00671 17.6299 7.52504 17.6299 5.70504C17.6299 3.85004 19.1349 2.33337 21.0016 2.33337C22.8566 2.33337 24.3732 3.83837 24.3732 5.70504C24.3615 7.52504 22.9266 9.00671 21.1182 9.06504Z" fill="#2AA7DF"/>
<path d="M24.9215 17.15C23.6149 18.025 21.7832 18.3517 20.0915 18.13C20.5349 17.1733 20.7682 16.1117 20.7799 14.9917C20.7799 13.825 20.5232 12.7166 20.0332 11.7483C21.7599 11.515 23.5915 11.8416 24.9099 12.7166C26.7532 13.93 26.7532 15.925 24.9215 17.15Z" fill="#2AA7DF"/>
<path d="M8.17986 9.06504C8.26152 9.05337 8.34319 9.05337 8.42486 9.06504C10.2332 9.00671 11.6682 7.52504 11.6682 5.70504C11.6682 3.83837 10.1632 2.33337 8.29652 2.33337C6.44152 2.33337 4.93652 3.83837 4.93652 5.70504C4.93652 7.52504 6.37152 9.00671 8.17986 9.06504Z" fill="#2AA7DF"/>
<path d="M8.30831 14.9916C8.30831 16.1233 8.55331 17.1966 8.99664 18.165C7.35164 18.34 5.63664 17.99 4.37664 17.1616C2.53331 15.9366 2.53331 13.9416 4.37664 12.7166C5.62497 11.8766 7.38664 11.5383 9.04331 11.725C8.56497 12.705 8.30831 13.8133 8.30831 14.9916Z" fill="#2AA7DF"/>
<path d="M14.8066 18.515C14.7133 18.5033 14.6083 18.5033 14.5033 18.515C12.3566 18.445 10.6416 16.6833 10.6416 14.5133C10.6533 12.2967 12.4383 10.5 14.6666 10.5C16.8833 10.5 18.6799 12.2967 18.6799 14.5133C18.6683 16.6833 16.9649 18.445 14.8066 18.515Z" fill="#2AA7DF"/>
<path d="M11.0156 20.93C9.25392 22.1083 9.25392 24.045 11.0156 25.2116C13.0223 26.5533 16.3123 26.5533 18.3189 25.2116C20.0806 24.0333 20.0806 22.0966 18.3189 20.93C16.3239 19.5883 13.0339 19.5883 11.0156 20.93Z" fill="#2AA7DF"/>
</svg>
