<svg width="1512" height="420" viewBox="0 0 1512 420" fill="none" xmlns="http://www.w3.org/2000/svg">
<g filter="url(#filter0_dddd_16_2734)">
<path fill-rule="evenodd" clip-rule="evenodd" d="M1432 316C1432 305.507 1423.49 297 1413 297H99C88.5066 297 80 305.507 80 316V336.918C80 347.411 71.4934 355.918 61 355.918H19C8.50659 355.918 0 364.424 0 374.918V419C0 419.552 0.447711 420 0.999996 420H1511C1511.55 420 1512 419.552 1512 419V374.918C1512 364.424 1503.49 355.918 1493 355.918H1451C1440.51 355.918 1432 347.411 1432 336.918V316Z" fill="white"/>
</g>
<defs>
<filter id="filter0_dddd_16_2734" x="-85" y="0" width="1682" height="436" filterUnits="userSpaceOnUse" color-interpolation-filters="sRGB">
<feFlood flood-opacity="0" result="BackgroundImageFix"/>
<feColorMatrix in="SourceAlpha" type="matrix" values="0 0 0 0 0 0 0 0 0 0 0 0 0 0 0 0 0 0 127 0" result="hardAlpha"/>
<feOffset dy="-13"/>
<feGaussianBlur stdDeviation="14.5"/>
<feColorMatrix type="matrix" values="0 0 0 0 0.568627 0 0 0 0 0.568627 0 0 0 0 0.568627 0 0 0 0.1 0"/>
<feBlend mode="normal" in2="BackgroundImageFix" result="effect1_dropShadow_16_2734"/>
<feColorMatrix in="SourceAlpha" type="matrix" values="0 0 0 0 0 0 0 0 0 0 0 0 0 0 0 0 0 0 127 0" result="hardAlpha"/>
<feOffset dy="-53"/>
<feGaussianBlur stdDeviation="26.5"/>
<feColorMatrix type="matrix" values="0 0 0 0 0.568627 0 0 0 0 0.568627 0 0 0 0 0.568627 0 0 0 0.09 0"/>
<feBlend mode="normal" in2="effect1_dropShadow_16_2734" result="effect2_dropShadow_16_2734"/>
<feColorMatrix in="SourceAlpha" type="matrix" values="0 0 0 0 0 0 0 0 0 0 0 0 0 0 0 0 0 0 127 0" result="hardAlpha"/>
<feOffset dy="-119"/>
<feGaussianBlur stdDeviation="35.5"/>
<feColorMatrix type="matrix" values="0 0 0 0 0.568627 0 0 0 0 0.568627 0 0 0 0 0.568627 0 0 0 0.05 0"/>
<feBlend mode="normal" in2="effect2_dropShadow_16_2734" result="effect3_dropShadow_16_2734"/>
<feColorMatrix in="SourceAlpha" type="matrix" values="0 0 0 0 0 0 0 0 0 0 0 0 0 0 0 0 0 0 127 0" result="hardAlpha"/>
<feOffset dy="-212"/>
<feGaussianBlur stdDeviation="42.5"/>
<feColorMatrix type="matrix" values="0 0 0 0 0.568627 0 0 0 0 0.568627 0 0 0 0 0.568627 0 0 0 0.01 0"/>
<feBlend mode="normal" in2="effect3_dropShadow_16_2734" result="effect4_dropShadow_16_2734"/>
<feBlend mode="normal" in="SourceGraphic" in2="effect4_dropShadow_16_2734" result="shape"/>
</filter>
</defs>
</svg>
