<svg xmlns="http://www.w3.org/2000/svg" width="108" height="101" viewBox="0 0 108 101" fill="none">
  <path d="M105.346 0.814603C102.66 1.65845 100.012 2.47562 97.3256 3.31947C96.5344 3.58499 96.4598 4.59764 97.0236 5.05489C98.1016 6.06036 99.1907 7.00155 100.269 8.00702C94.1923 15.0999 85.7143 19.8435 76.726 22.8491C67.1664 26.0245 55.5417 26.2782 47.8683 33.4037C46.2499 34.9207 44.5358 37.1823 43.2489 39.7132C37.726 38.5655 31.5162 39.42 26.8661 41.6244C20.666 44.5635 16.4379 50.3759 15.5443 56.8738C9.69073 59.5729 4.84783 65.4155 2.51992 70.8157C-1.798 80.6471 -0.040418 92.1478 6.92496 100.379C7.40058 100.954 8.36315 100.287 7.88754 99.7125C2.83709 93.3196 0.55885 85.006 2.22006 77.0153C3.71975 69.7583 8.5069 62.4846 15.4112 59.0009C15.4024 60.0245 15.4322 61.0214 15.5935 62.0401C16.5716 68.4848 23.7468 78.0407 30.9767 72.2965C37.6179 67.0167 33.4482 58.0917 26.2711 55.9421C23.3104 55.0541 20.4067 55.2006 17.6818 56.0711C18.7193 50.8867 22.1698 46.2349 27.1118 43.7152C31.4986 41.4671 37.275 40.5738 42.4141 41.5917C40.2017 46.9119 39.8857 53.0096 44.9576 56.1656C47.948 58.0505 51.6715 57.2795 53.5471 54.2842C55.6215 50.925 54.7015 46.8707 51.9496 44.1988C50.0732 42.3334 47.69 41.0452 45.113 40.287C47.7302 35.3647 52.6263 31.7462 58.1371 29.85C62.5325 28.3308 67.1725 27.5465 71.6983 26.4457C76.1967 25.3073 80.6195 23.8257 84.7802 21.9039C91.2932 18.9174 97.25 14.8467 101.872 9.49642C102.424 10.018 103.016 10.5128 103.568 11.0343C103.951 11.5607 104.399 12.098 104.743 12.651C105.043 13.0646 105.543 13.1144 105.917 12.9119C106.493 12.9083 107.027 12.3687 106.996 11.7683C107.084 8.14586 107.189 4.62524 107.332 1.07794C107.363 -0.0741721 105.766 -0.0415659 105.346 0.814603ZM28.5884 58.9718C31.595 60.9585 33.3508 64.4902 31.9458 67.8943C30.4303 71.5445 26.3801 73.2202 22.8805 70.9533C19.8354 68.9932 18.102 65.333 17.5533 61.8693C17.3709 60.5825 17.3474 59.3552 17.4282 58.1122C21.0437 56.7942 25.1819 56.7533 28.5884 58.9718ZM49.38 44.566C52.4076 46.8208 54.3943 51.9448 50.6098 54.6235C48.8772 55.824 46.607 55.2489 45.1403 53.9475C43.3781 52.3987 42.9139 50.0071 42.9923 47.8047C43.0757 45.7685 43.477 43.8512 44.1963 42.0527C46.0989 42.5998 47.8525 43.4198 49.38 44.566Z" fill="#2AA7DF" fill-opacity="0.5"/>
</svg>