<svg width="29" height="28" viewBox="0 0 29 28" fill="none" xmlns="http://www.w3.org/2000/svg">
<path d="M25.486 12.53L23.8994 10.6867C23.596 10.3367 23.351 9.68336 23.351 9.21669V7.23336C23.351 5.99669 22.336 4.98169 21.0994 4.98169H19.116C18.661 4.98169 17.996 4.73669 17.646 4.43336L15.8027 2.84669C14.9977 2.15836 13.6794 2.15836 12.8627 2.84669L11.031 4.44503C10.681 4.73669 10.016 4.98169 9.56104 4.98169H7.54271C6.30604 4.98169 5.29104 5.99669 5.29104 7.23336V9.22836C5.29104 9.68336 5.04604 10.3367 4.75437 10.6867L3.17937 12.5417C2.50271 13.3467 2.50271 14.6534 3.17937 15.4584L4.75437 17.3134C5.04604 17.6634 5.29104 18.3167 5.29104 18.7717V20.7667C5.29104 22.0034 6.30604 23.0184 7.54271 23.0184H9.56104C10.016 23.0184 10.681 23.2634 11.031 23.5667L12.8744 25.1534C13.6794 25.8417 14.9977 25.8417 15.8144 25.1534L17.6577 23.5667C18.0077 23.2634 18.661 23.0184 19.1277 23.0184H21.111C22.3477 23.0184 23.3627 22.0034 23.3627 20.7667V18.7834C23.3627 18.3284 23.6077 17.6634 23.911 17.3134L25.4977 15.47C26.1744 14.665 26.1744 13.335 25.486 12.53ZM19.186 11.795L13.551 17.43C13.3877 17.5934 13.166 17.6867 12.9327 17.6867C12.6994 17.6867 12.4777 17.5934 12.3144 17.43L9.49104 14.6067C9.15271 14.2684 9.15271 13.7084 9.49104 13.37C9.82937 13.0317 10.3894 13.0317 10.7277 13.37L12.9327 15.575L17.9494 10.5584C18.2877 10.22 18.8477 10.22 19.186 10.5584C19.5244 10.8967 19.5244 11.4567 19.186 11.795Z" fill="#2AA7DF"/>
</svg>
